<svg width="22" height="16" viewBox="0 0 22 16" fill="none" xmlns="http://www.w3.org/2000/svg">
<path d="M20.0319 6.962C20.5059 7.582 20.5059 8.419 20.0319 9.038C18.5389 10.987 14.9569 15 10.7749 15C6.59291 15 3.01091 10.987 1.51791 9.038C1.2873 8.74113 1.16211 8.37592 1.16211 8C1.16211 7.62408 1.2873 7.25887 1.51791 6.962C3.01091 5.013 6.59291 1 10.7749 1C14.9569 1 18.5389 5.013 20.0319 6.962V6.962Z" stroke="black" stroke-width="1.5" stroke-linecap="round" stroke-linejoin="round"/>
<path d="M10.7754 11C12.4322 11 13.7754 9.65685 13.7754 8C13.7754 6.34315 12.4322 5 10.7754 5C9.11854 5 7.77539 6.34315 7.77539 8C7.77539 9.65685 9.11854 11 10.7754 11Z" stroke="black" stroke-width="1.5" stroke-linecap="round" stroke-linejoin="round"/>
</svg>
