<svg width="21" height="21" viewBox="0 0 21 21" fill="none" xmlns="http://www.w3.org/2000/svg">
<path d="M15.5 1.5H5.5C4.43913 1.5 3.42172 1.92143 2.67157 2.67157C1.92143 3.42172 1.5 4.43913 1.5 5.5V15.5C1.5 16.5609 1.92143 17.5783 2.67157 18.3284C3.42172 19.0786 4.43913 19.5 5.5 19.5H15.5C16.5609 19.5 17.5783 19.0786 18.3284 18.3284C19.0786 17.5783 19.5 16.5609 19.5 15.5V5.5C19.5 4.43913 19.0786 3.42172 18.3284 2.67157C17.5783 1.92143 16.5609 1.5 15.5 1.5Z" stroke="black" stroke-width="1.5" stroke-linejoin="round"/>
<path d="M10.5 14.5C11.5609 14.5 12.5783 14.0786 13.3284 13.3284C14.0786 12.5783 14.5 11.5609 14.5 10.5C14.5 9.43913 14.0786 8.42172 13.3284 7.67157C12.5783 6.92143 11.5609 6.5 10.5 6.5C9.43913 6.5 8.42172 6.92143 7.67157 7.67157C6.92143 8.42172 6.5 9.43913 6.5 10.5C6.5 11.5609 6.92143 12.5783 7.67157 13.3284C8.42172 14.0786 9.43913 14.5 10.5 14.5V14.5Z" stroke="black" stroke-width="1.5" stroke-linejoin="round"/>
<path d="M16 6C16.2652 6 16.5196 5.89464 16.7071 5.70711C16.8946 5.51957 17 5.26522 17 5C17 4.73478 16.8946 4.48043 16.7071 4.29289C16.5196 4.10536 16.2652 4 16 4C15.7348 4 15.4804 4.10536 15.2929 4.29289C15.1054 4.48043 15 4.73478 15 5C15 5.26522 15.1054 5.51957 15.2929 5.70711C15.4804 5.89464 15.7348 6 16 6Z" fill="black"/>
</svg>
