<svg width="19" height="19" viewBox="0 0 19 19" fill="none" xmlns="http://www.w3.org/2000/svg">
<path d="M15.9005 2.77297C14.2329 0.975707 11.9278 0 9.57355 0C4.57089 0 0.549077 4.26215 0.598084 9.44862C0.598084 11.0919 1.0395 12.6838 1.77524 14.1216L0.5 19L5.25748 17.7162C6.58173 18.4865 8.05306 18.846 9.52454 18.846C14.4782 18.846 18.5 14.5838 18.5 9.39738C18.5 6.88111 17.568 4.51892 15.9005 2.77297ZM9.57355 17.2541C8.2493 17.2541 6.92506 16.8947 5.79698 16.1758L5.50273 16.0217L2.65807 16.792L3.39374 13.865L3.19757 13.5568C1.0395 9.91092 2.06949 5.08378 5.60081 2.82428C9.13213 0.564856 13.6934 1.64326 15.8515 5.34055C18.0095 9.03784 16.9795 13.8135 13.4483 16.073C12.3201 16.8433 10.9469 17.2541 9.57355 17.2541ZM13.8896 11.5542L13.3501 11.2974C13.3501 11.2974 12.5654 10.9379 12.0749 10.6812C12.0259 10.6812 11.9769 10.6298 11.9278 10.6298C11.7806 10.6298 11.6825 10.6812 11.5845 10.7326C11.5845 10.7326 11.5354 10.7839 10.8488 11.6055C10.7997 11.7082 10.7016 11.7596 10.6035 11.7596H10.5545C10.5055 11.7596 10.4074 11.7082 10.3583 11.6569L10.113 11.5542C9.57355 11.2974 9.08312 10.9893 8.69072 10.5785C8.59263 10.4758 8.44547 10.3731 8.34739 10.2704C8.00405 9.91092 7.66072 9.50007 7.41555 9.03791L7.36647 8.93522C7.31746 8.88383 7.31746 8.83252 7.26839 8.72983C7.26839 8.62713 7.26839 8.52444 7.31746 8.47306C7.31746 8.47306 7.51363 8.21628 7.66072 8.06228C7.75888 7.95951 7.80789 7.80551 7.90597 7.70281C8.00405 7.54873 8.05313 7.34334 8.00405 7.18927C7.95505 6.93249 7.36647 5.54601 7.21938 5.23793C7.12122 5.08385 7.02321 5.03254 6.87605 4.98115H6.33655C6.23839 4.98115 6.14038 5.03254 6.04223 5.03254L5.99315 5.08385C5.89506 5.13523 5.79698 5.23793 5.6989 5.28924C5.60081 5.392 5.55173 5.49463 5.45365 5.59739C5.11032 6.05956 4.91415 6.62441 4.91415 7.18927C4.91415 7.60004 5.01223 8.01089 5.1594 8.37036L5.20847 8.52444C5.64989 9.50007 6.23839 10.3731 7.02321 11.1433L7.21938 11.3487C7.36647 11.5028 7.51363 11.6055 7.61172 11.7595C8.64171 12.6839 9.81879 13.3514 11.143 13.7109C11.2902 13.7622 11.4864 13.7622 11.6335 13.8136H12.124C12.3692 13.8136 12.6635 13.7109 12.8597 13.6082C13.0068 13.5055 13.1049 13.5055 13.203 13.4028L13.3011 13.3001C13.3992 13.1974 13.4973 13.1461 13.5954 13.0434C13.6934 12.9407 13.7915 12.838 13.8406 12.7352C13.9387 12.5298 13.9877 12.273 14.0368 12.0163V11.6569C14.0368 11.6569 13.9877 11.6055 13.8896 11.5542Z" fill="black"/>
</svg>
