<svg width="36" height="36" viewBox="0 0 36 36" fill="none" xmlns="http://www.w3.org/2000/svg">
<path d="M8.25 13.6252C8.25 13.5562 8.30625 13.5 8.37525 13.5H26.1248C26.1938 13.5 26.25 13.5562 26.25 13.6252V22.5C26.25 27.4702 22.2202 31.5 17.25 31.5C12.2798 31.5 8.25 27.4702 8.25 22.5V13.6252Z" stroke="black" stroke-width="2" stroke-linecap="round" stroke-linejoin="round"/>
<path d="M26.25 22.5C27.4435 22.5 28.5881 22.0259 29.432 21.182C30.2759 20.3381 30.75 19.1935 30.75 18C30.75 16.8065 30.2759 15.6619 29.432 14.818C28.5881 13.9741 27.4435 13.5 26.25 13.5" stroke="black" stroke-width="2" stroke-linecap="round"/>
<path d="M8.25 6V8.25M26.25 6V8.25M17.25 3.75V8.25" stroke="black" stroke-width="2" stroke-linecap="round" stroke-linejoin="round"/>
</svg>
