<svg width="36" height="36" viewBox="0 0 36 36" fill="none" xmlns="http://www.w3.org/2000/svg">
<path d="M4.7895 5.58903C4.85125 4.88005 5.17739 4.22021 5.70315 3.74058C6.22891 3.26094 6.91584 2.9966 7.6275 3.00003C8.3025 3.00003 8.9265 3.23403 9.417 3.62553C9.94204 3.22011 10.5866 3.00015 11.25 3.00003C11.94 3.00003 12.576 3.23253 13.083 3.62553C13.5907 3.21895 14.2221 2.99823 14.8725 3.00003C16.3365 3.00003 17.583 4.10553 17.7105 5.58903C17.8365 7.05153 18 9.31353 18 11.25C18.0001 12.4132 17.6997 13.5567 17.1278 14.5695C16.556 15.5824 15.732 16.4303 14.736 17.031C14.403 17.232 14.316 17.481 14.325 17.61C14.5155 20.511 15 28.038 15 29.2455C15 30.2401 14.6049 31.1939 13.9017 31.8972C13.1984 32.6004 12.2446 32.9955 11.25 32.9955C10.2554 32.9955 9.30161 32.6004 8.59835 31.8972C7.89509 31.1939 7.5 30.2401 7.5 29.2455C7.5 28.038 7.9845 20.511 8.175 17.61C8.1825 17.4795 8.097 17.232 7.764 17.031C6.76796 16.4303 5.94404 15.5824 5.37217 14.5695C4.80029 13.5567 4.49986 12.4132 4.5 11.25C4.5 9.31503 4.6635 7.05153 4.7895 5.58903ZM14.25 10.875C14.25 11.1734 14.1315 11.4595 13.9205 11.6705C13.7095 11.8815 13.4234 12 13.125 12C12.8266 12 12.5405 11.8815 12.3295 11.6705C12.1185 11.4595 12 11.1734 12 10.875V6.00003C12 5.80112 11.921 5.61036 11.7803 5.4697C11.6397 5.32905 11.4489 5.25003 11.25 5.25003C11.0511 5.25003 10.8603 5.32905 10.7197 5.4697C10.579 5.61036 10.5 5.80112 10.5 6.00003V10.875C10.5 11.1734 10.3815 11.4595 10.1705 11.6705C9.95952 11.8815 9.67337 12 9.375 12C9.07663 12 8.79048 11.8815 8.5795 11.6705C8.36853 11.4595 8.25 11.1734 8.25 10.875V5.87253C8.25 5.70744 8.18442 5.5491 8.06767 5.43236C7.95093 5.31562 7.7926 5.25003 7.6275 5.25003C7.47926 5.24745 7.33549 5.30083 7.22485 5.39952C7.11421 5.49821 7.04481 5.63496 7.0305 5.78253C6.906 7.23003 6.75 9.41253 6.75 11.25C6.75 12.885 7.62 14.316 8.928 15.105C9.7455 15.6 10.4985 16.545 10.4205 17.757C10.2255 20.727 9.75 28.134 9.75 29.247C9.75 29.6449 9.90804 30.0264 10.1893 30.3077C10.4706 30.589 10.8522 30.747 11.25 30.747C11.6478 30.747 12.0294 30.589 12.3107 30.3077C12.592 30.0264 12.75 29.6449 12.75 29.247C12.75 28.134 12.2745 20.727 12.0795 17.757C12.0015 16.545 12.7545 15.6 13.572 15.105C14.2365 14.7047 14.7863 14.1394 15.1679 13.4639C15.5496 12.7885 15.7501 12.0258 15.75 11.25C15.75 9.41403 15.594 7.23003 15.4695 5.78253C15.4552 5.63496 15.3858 5.49821 15.2752 5.39952C15.1645 5.30083 15.0207 5.24745 14.8725 5.25003C14.7074 5.25003 14.5491 5.31562 14.4323 5.43236C14.3156 5.5491 14.25 5.70744 14.25 5.87253V10.875ZM19.5 11.625C19.5 9.33754 20.4087 7.14374 22.0262 5.52624C23.6437 3.90874 25.8375 3.00003 28.125 3.00003C28.4234 3.00003 28.7095 3.11856 28.9205 3.32954C29.1315 3.54052 29.25 3.82666 29.25 4.12503V16.875C29.25 17.352 29.409 19.7175 29.5875 22.338L29.595 22.4625C29.79 25.3245 30 28.437 30 29.2455C30 30.2401 29.6049 31.1939 28.9016 31.8972C28.1984 32.6004 27.2446 32.9955 26.25 32.9955C25.2554 32.9955 24.3016 32.6004 23.5984 31.8972C22.8951 31.1939 22.5 30.2401 22.5 29.2455C22.5 28.4745 22.692 25.329 22.878 22.4445C22.971 20.988 23.0655 19.5765 23.136 18.5295L23.1705 18H22.125C21.7803 18 21.4389 17.9321 21.1205 17.8002C20.802 17.6683 20.5126 17.4749 20.2688 17.2312C20.0251 16.9874 19.8317 16.6981 19.6998 16.3796C19.5679 16.0611 19.5 15.7198 19.5 15.375V11.625ZM25.497 16.953L25.4655 17.424C25.3473 19.1458 25.2328 20.8678 25.122 22.59C24.933 25.53 24.75 28.569 24.75 29.2455C24.75 29.6434 24.908 30.0249 25.1893 30.3062C25.4706 30.5875 25.8522 30.7455 26.25 30.7455C26.6478 30.7455 27.0294 30.5875 27.3107 30.3062C27.592 30.0249 27.75 29.6434 27.75 29.2455C27.75 28.5255 27.543 25.4565 27.342 22.4895L27.3315 22.3335C27.162 19.845 27 17.4405 27 16.875V5.34903C25.5277 5.613 24.195 6.3863 23.2353 7.53362C22.2755 8.68094 21.7498 10.1292 21.75 11.625V15.375C21.75 15.582 21.918 15.75 22.125 15.75H24.375C24.5293 15.7501 24.6819 15.7818 24.8234 15.8434C24.9649 15.9049 25.0922 15.9949 25.1974 16.1077C25.3026 16.2205 25.3835 16.3538 25.4351 16.4992C25.4866 16.6447 25.5077 16.7991 25.497 16.953Z" fill="black"/>
</svg>
