<svg width="36" height="36" viewBox="0 0 36 36" fill="none" xmlns="http://www.w3.org/2000/svg">
<path d="M33.9696 17.2534C32.4783 10.5111 30.2339 6.9125 26.9046 5.92954C26.2048 5.72423 25.4788 5.62167 24.7495 5.62508C23.7856 5.62508 22.946 5.85993 22.058 6.10883C20.9878 6.40907 19.7721 6.75008 17.9995 6.75008C16.227 6.75008 15.0105 6.40977 13.9383 6.10954C13.0495 5.85993 12.2107 5.62508 11.2495 5.62508C10.4954 5.62243 9.74452 5.72466 9.01852 5.92883C5.7068 6.90758 3.46383 10.5048 1.95071 17.2491C0.323675 24.5068 1.12453 29.0891 4.19649 30.1522C4.61757 30.3006 5.06063 30.3772 5.50711 30.3786C7.61157 30.3786 9.29907 28.6257 10.4522 27.1906C11.7551 25.5664 13.2802 24.7423 17.9995 24.7423C22.2148 24.7423 23.9592 25.314 25.466 27.1906C26.4131 28.3705 27.3082 29.1959 28.2012 29.7155C29.3888 30.406 30.5756 30.5593 31.7281 30.1634C33.5435 29.544 34.5841 27.9064 34.8218 25.295C35.0025 23.2925 34.7241 20.6621 33.9696 17.2534ZM14.6245 16.8751H12.3745V19.1251C12.3745 19.4235 12.256 19.7096 12.045 19.9206C11.8341 20.1316 11.5479 20.2501 11.2495 20.2501C10.9512 20.2501 10.665 20.1316 10.454 19.9206C10.2431 19.7096 10.1245 19.4235 10.1245 19.1251V16.8751H7.87453C7.57617 16.8751 7.29002 16.7566 7.07904 16.5456C6.86806 16.3346 6.74953 16.0485 6.74953 15.7501C6.74953 15.4517 6.86806 15.1656 7.07904 14.9546C7.29002 14.7436 7.57617 14.6251 7.87453 14.6251H10.1245V12.3751C10.1245 12.0767 10.2431 11.7906 10.454 11.5796C10.665 11.3686 10.9512 11.2501 11.2495 11.2501C11.5479 11.2501 11.8341 11.3686 12.045 11.5796C12.256 11.7906 12.3745 12.0767 12.3745 12.3751V14.6251H14.6245C14.9229 14.6251 15.2091 14.7436 15.42 14.9546C15.631 15.1656 15.7495 15.4517 15.7495 15.7501C15.7495 16.0485 15.631 16.3346 15.42 16.5456C15.2091 16.7566 14.9229 16.8751 14.6245 16.8751ZM20.5308 17.1563C20.2527 17.1563 19.9808 17.0739 19.7495 16.9193C19.5183 16.7648 19.338 16.5452 19.2316 16.2882C19.1251 16.0313 19.0973 15.7485 19.1516 15.4757C19.2058 15.203 19.3397 14.9524 19.5364 14.7557C19.7331 14.559 19.9837 14.4251 20.2564 14.3709C20.5292 14.3166 20.812 14.3444 21.0689 14.4509C21.3259 14.5573 21.5455 14.7376 21.7 14.9688C21.8546 15.2001 21.937 15.472 21.937 15.7501C21.937 16.123 21.7889 16.4807 21.5252 16.7445C21.2614 17.0082 20.9037 17.1563 20.5308 17.1563ZM23.6245 20.2501C23.3463 20.2501 23.0742 20.1675 22.8429 20.0128C22.6116 19.8582 22.4313 19.6383 22.325 19.3812C22.2187 19.124 22.191 18.8411 22.2456 18.5682C22.3001 18.2953 22.4344 18.0447 22.6314 17.8482C22.8284 17.6517 23.0793 17.518 23.3524 17.4642C23.6254 17.4103 23.9082 17.4387 24.1651 17.5456C24.422 17.6526 24.6414 17.8334 24.7955 18.0651C24.9496 18.2968 25.0315 18.5691 25.0308 18.8473C25.0299 19.2197 24.8813 19.5765 24.6177 19.8394C24.354 20.1024 23.9969 20.2501 23.6245 20.2501ZM23.6245 14.0626C23.3464 14.0626 23.0745 13.9801 22.8433 13.8256C22.612 13.6711 22.4318 13.4514 22.3253 13.1945C22.2189 12.9375 22.191 12.6548 22.2453 12.382C22.2996 12.1092 22.4335 11.8586 22.6302 11.662C22.8268 11.4653 23.0774 11.3314 23.3502 11.2771C23.623 11.2228 23.9057 11.2507 24.1627 11.3571C24.4196 11.4636 24.6393 11.6438 24.7938 11.8751C24.9483 12.1063 25.0308 12.3782 25.0308 12.6563C25.0308 13.0293 24.8826 13.387 24.6189 13.6507C24.3552 13.9144 23.9975 14.0626 23.6245 14.0626ZM26.7183 17.1563C26.4402 17.1563 26.1683 17.0739 25.937 16.9193C25.7058 16.7648 25.5255 16.5452 25.4191 16.2882C25.3126 16.0313 25.2848 15.7485 25.3391 15.4757C25.3933 15.203 25.5272 14.9524 25.7239 14.7557C25.9206 14.559 26.1712 14.4251 26.4439 14.3709C26.7167 14.3166 26.9995 14.3444 27.2564 14.4509C27.5134 14.5573 27.733 14.7376 27.8875 14.9688C28.0421 15.2001 28.1245 15.472 28.1245 15.7501C28.1245 16.123 27.9764 16.4807 27.7127 16.7445C27.4489 17.0082 27.0912 17.1563 26.7183 17.1563Z" fill="black"/>
</svg>
