<svg width="36" height="36" viewBox="0 0 36 36" fill="none" xmlns="http://www.w3.org/2000/svg">
<path fill-rule="evenodd" clip-rule="evenodd" d="M29.8093 18.4504L17.7598 30.4474C16.1539 32.0153 13.994 32.8859 11.7497 32.87C9.50534 32.8542 7.35799 31.953 5.77443 30.3626C4.19087 28.7721 3.29911 26.6208 3.293 24.3764C3.2869 22.132 4.16694 19.976 5.74183 18.3769L17.7913 6.3799C19.3972 4.81199 21.5571 3.94136 23.8015 3.95724C26.0458 3.97313 28.1932 4.87426 29.7767 6.46474C31.3603 8.05522 32.252 10.2065 32.2582 12.4509C32.2643 14.6952 31.3842 16.8513 29.8093 18.4504ZM27.7093 8.5234C26.6768 7.48778 25.2755 6.90422 23.8131 6.90085C22.3506 6.89747 20.9466 7.47455 19.9093 8.5054L7.85833 20.5024C6.8214 21.5347 6.23704 22.9367 6.2338 24.3999C6.23057 25.8632 6.80872 27.2677 7.84108 28.3046C8.87343 29.3416 10.2754 29.9259 11.7386 29.9292C13.2018 29.9324 14.6064 29.3543 15.6433 28.3219L27.6928 16.3249C28.7289 15.2923 29.3128 13.8907 29.3161 12.4279C29.3195 10.9651 28.7421 9.56078 27.7108 8.5234H27.7093Z" fill="black"/>
<path fill-rule="evenodd" clip-rule="evenodd" d="M12.1765 12.7868C12.4578 12.5056 12.8392 12.3477 13.237 12.3477C13.6347 12.3477 14.0162 12.5056 14.2975 12.7868L23.3725 21.8618C23.6457 22.1447 23.7969 22.5236 23.7935 22.9169C23.7901 23.3102 23.6323 23.6865 23.3542 23.9646C23.0761 24.2427 22.6999 24.4004 22.3066 24.4038C21.9133 24.4073 21.5344 24.2561 21.2515 23.9828L12.1765 14.9078C11.8953 14.6265 11.7373 14.2451 11.7373 13.8473C11.7373 13.4496 11.8953 13.0681 12.1765 12.7868Z" fill="black"/>
</svg>
