<svg width="36" height="36" viewBox="0 0 36 36" fill="none" xmlns="http://www.w3.org/2000/svg">
<path d="M10.5856 9.28877C10.6739 9.24506 10.77 9.21919 10.8683 9.21261C10.9666 9.20603 11.0652 9.21889 11.1585 9.25044C11.2518 9.28199 11.338 9.33162 11.4122 9.39649C11.4863 9.46136 11.547 9.5402 11.5906 9.62852L12.1839 10.8315L13.3936 9.53402C13.5292 9.38855 13.717 9.30289 13.9157 9.29586C14.1145 9.28882 14.3079 9.361 14.4534 9.49652C14.7556 9.78002 14.7721 10.2548 14.4901 10.5578L12.8941 12.27L13.4964 13.4895L14.4946 12.5798C14.5675 12.5135 14.6527 12.4622 14.7454 12.4288C14.8381 12.3954 14.9365 12.3807 15.0349 12.3853C15.1333 12.39 15.2299 12.414 15.319 12.456C15.4081 12.498 15.4881 12.5571 15.5544 12.63C15.6209 12.7029 15.6724 12.7882 15.7059 12.8811C15.7394 12.9739 15.7542 13.0725 15.7496 13.1711C15.7449 13.2697 15.7208 13.3664 15.6787 13.4556C15.6366 13.5449 15.5773 13.625 15.5041 13.6913L14.1879 14.8898L14.9799 16.494C15.0682 16.6723 15.0821 16.8784 15.0184 17.067C14.9548 17.2555 14.8188 17.4111 14.6405 17.4994C14.4622 17.5877 14.2561 17.6016 14.0675 17.5379C13.879 17.4743 13.7234 17.3383 13.6351 17.16L12.8139 15.4958L11.3409 15.7943C11.1456 15.8337 10.9427 15.7941 10.7768 15.6839C10.6108 15.5738 10.4954 15.4022 10.4559 15.207C10.4164 15.0118 10.4561 14.8089 10.5662 14.6429C10.6763 14.4769 10.8479 14.3615 11.0431 14.322L12.1261 14.103L11.5299 12.8955L9.24988 13.239C9.05296 13.2686 8.85237 13.2187 8.69223 13.1003C8.5321 12.9819 8.42554 12.8048 8.39601 12.6079C8.36647 12.411 8.41637 12.2104 8.53472 12.0502C8.65308 11.8901 8.83021 11.7836 9.02713 11.754L10.8316 11.4818L10.2459 10.2945C10.2021 10.2062 10.1761 10.1101 10.1695 10.0117C10.1628 9.91333 10.1756 9.8146 10.2072 9.72119C10.2388 9.62777 10.2884 9.5415 10.3534 9.4673C10.4183 9.3931 10.4972 9.33243 10.5856 9.28877ZM27.5356 15.936C27.6336 15.9258 27.7327 15.9351 27.8271 15.9632C27.9216 15.9913 28.0095 16.0378 28.086 16.0999C28.1625 16.162 28.226 16.2386 28.2728 16.3253C28.3197 16.4119 28.349 16.507 28.3591 16.605C28.5091 18.0353 27.8791 19.3875 26.6889 20.193C26.5237 20.2954 26.3254 20.3298 26.1354 20.289C25.9455 20.2483 25.7787 20.1356 25.67 19.9746C25.5614 19.8135 25.5193 19.6166 25.5526 19.4253C25.586 19.2339 25.6922 19.0628 25.8489 18.948C26.2037 18.7127 26.4866 18.384 26.6663 17.998C26.8461 17.6121 26.9156 17.184 26.8674 16.761C26.857 16.663 26.866 16.5638 26.894 16.4692C26.922 16.3747 26.9683 16.2866 27.0304 16.2099C27.0925 16.1333 27.1691 16.0697 27.2557 16.0227C27.3424 15.9757 27.4375 15.9462 27.5356 15.936Z" fill="black"/>
<path fill-rule="evenodd" clip-rule="evenodd" d="M7.58165 31.4989C9.80465 31.3864 11.1929 30.7684 12.0554 29.8549C12.3569 30.2854 12.8804 30.5374 13.4482 30.4489C16.4286 29.9839 23.0707 28.7599 30.5354 26.1784C30.8159 26.0897 31.0608 25.9139 31.2347 25.6765C31.4085 25.4392 31.5022 25.1526 31.5022 24.8584C31.5022 24.5642 31.4085 24.2777 31.2347 24.0403C31.0608 23.803 30.8159 23.6272 30.5354 23.5384C29.6889 23.2464 28.8546 22.9712 28.0326 22.7127C29.5214 21.9274 30.6637 20.6097 31.1107 18.9372C32.1194 15.1684 29.4719 11.8894 26.0361 12.9327C25.7939 11.2032 26.3549 9.61018 27.8272 8.75893L27.0772 7.45843C25.2562 8.51068 24.4911 10.3114 24.4844 12.1557C23.1937 11.1679 21.6292 11.1304 20.2994 11.8257C20.2938 11.603 20.2621 11.3817 20.2049 11.1664C19.9762 10.3107 19.3649 9.69943 18.5249 9.34768C18.3524 8.55568 17.9549 7.59418 17.2041 6.87718C16.3341 6.04768 15.0847 5.63518 13.4564 6.03568C13.0561 5.48838 12.5185 5.05635 11.8979 4.78318C10.8967 4.35193 9.6389 4.36093 8.2199 5.17768C6.73715 5.87143 6.0224 6.89218 5.82515 7.96243C5.69165 8.68993 5.8079 9.37993 5.99915 9.92443C4.74065 11.0277 4.3619 12.2877 4.54265 13.4749C4.6994 14.5017 5.2589 15.3792 5.8079 15.9747C5.6144 16.8649 5.76515 17.7154 6.3344 18.3942C6.4814 18.5687 6.6489 18.7244 6.8369 18.8614C6.83354 18.8918 6.83203 18.9224 6.8324 18.9529C6.84965 20.3464 6.92915 21.4482 7.2149 22.3047C6.2939 22.6564 5.4254 23.3712 4.6334 24.4497C4.54611 24.5682 4.49902 24.7116 4.49902 24.8588C4.49902 25.006 4.54611 25.1494 4.6334 25.2679C5.41865 26.3374 6.27965 27.0499 7.1924 27.4039C6.9494 28.2349 6.8549 29.3284 6.83315 30.7624C6.83082 30.8608 6.84868 30.9586 6.88562 31.0498C6.92257 31.141 6.97782 31.2237 7.04796 31.2927C7.11811 31.3617 7.20165 31.4156 7.29344 31.4511C7.38524 31.4866 7.48332 31.5029 7.58165 31.4989ZM13.4399 24.8584C13.4399 25.6309 13.4099 26.4034 13.2869 27.1347V28.9542C14.0144 28.8394 14.9572 28.6804 16.0724 28.4674V25.6909H17.5724V28.1697C20.1258 27.642 22.6584 27.0181 25.1647 26.2992V24.8592H26.6647V25.8567C27.6719 25.5492 28.7047 25.2177 29.7547 24.8592C28.3158 24.367 26.8654 23.9094 25.4047 23.4867L25.3222 23.4942L22.8524 22.7832C22.4634 22.6817 22.0809 22.5842 21.7049 22.4907V25.6909H20.2049V22.1277C17.9163 21.5888 15.6087 21.1335 13.2869 20.7627V22.5822C13.4092 23.3134 13.4399 24.0859 13.4399 24.8584ZM11.7869 27.0034V22.7134C11.6819 22.1434 11.5132 21.6612 11.2552 21.2637C10.8614 20.6569 10.1032 20.0262 8.35415 19.7937C8.3924 20.7109 8.47865 21.3537 8.6369 21.8284L9.0929 23.1949L7.7489 23.7079C7.28165 23.8864 6.76415 24.2419 6.22565 24.8584C6.75815 25.4689 7.2719 25.8237 7.73465 26.0037L9.0194 26.5032L8.63165 27.8269C8.48915 28.3137 8.40065 28.9804 8.3579 29.9224C10.1047 29.6899 10.8614 29.0599 11.2552 28.4539C11.5132 28.0564 11.6819 27.5742 11.7877 27.0042M12.4979 19.4517C11.6392 18.7857 10.6147 18.2667 9.36215 18.1579C8.34665 18.0694 7.7624 17.7604 7.4834 17.4282C7.2359 17.1334 7.11965 16.6879 7.35815 15.9979L7.52165 15.5254L7.14965 15.1924C6.6734 14.7664 6.14615 14.0352 6.02615 13.2492C5.91965 12.5472 6.1139 11.6622 7.3574 10.7614L7.89365 10.3737L7.57565 9.79243C7.37315 9.42268 7.19315 8.82493 7.30115 8.23543C7.40015 7.69843 7.7594 7.04443 8.88065 6.52693L8.91365 6.51193L8.9444 6.49393C10.0124 5.87143 10.7819 5.93743 11.3069 6.16393C11.8754 6.40768 12.2722 6.89143 12.4499 7.25143L12.7431 7.84393L13.3672 7.62868C14.8184 7.12618 15.6554 7.47418 16.1699 7.96543C16.7451 8.51443 17.0414 9.36643 17.1179 10.0002L17.1772 10.4952L17.6572 10.6324C18.3591 10.8327 18.6577 11.1837 18.7574 11.5557C18.8699 11.9749 18.7874 12.6304 18.2774 13.5117C17.8937 14.1793 17.6531 14.9195 17.5709 15.6852C17.3331 16.8649 17.4734 18.0537 17.9182 19.1367C17.9842 19.4029 18.0532 19.6602 18.1184 19.9047L18.1447 20.0007C18.1577 20.0477 18.1689 20.0942 18.1784 20.1402C16.1894 19.7232 14.5634 19.4427 13.4497 19.2687C13.1205 19.2164 12.7842 19.2812 12.4979 19.4517ZM25.5404 21.9642C24.0425 21.5349 22.5351 21.1393 21.0194 20.7777C20.2893 20.2249 19.7132 19.4941 19.3462 18.6552C19.1212 17.7207 18.9659 16.8094 19.0499 15.9364C19.0649 15.8629 19.0824 15.7894 19.1024 15.7159C19.5171 14.1664 20.5222 13.2462 21.4799 12.9582C22.3709 12.6904 23.4037 12.9034 24.2399 14.0412L24.9501 15.0087L26.0497 14.5272C27.3419 13.9602 28.3417 14.2924 28.9799 14.9704C29.6662 15.7002 30.0764 16.9992 29.6624 18.5494C29.1847 20.3329 27.5617 21.6769 25.5404 21.9642Z" fill="black"/>
</svg>
